<svg height="205" viewBox="0 0 1019 205" width="1019" xmlns="http://www.w3.org/2000/svg"><path d="m145.4 183.1h-107.8c-20.7 0-37.6-16.8-37.6-37.7v-107.8c0-20.7 16.9-37.6 37.6-37.6h107.8c20.8 0 37.6 16.9 37.6 37.6v107.8c.1 20.9-16.7 37.7-37.6 37.7z" fill="#fddb32"/><path d="m56 147.5v-17.8c0-1.4-1.1-2.6-2.6-2.6h-17.8c-1.4 0-2.6 1.1-2.6 2.6v17.8c0 1.4 1.1 2.6 2.6 2.6h17.8c1.4 0 2.6-1.1 2.6-2.6z" fill="#191e3b"/><path d="m150.1 132.2v-87.5c0-6.5-5.2-11.7-11.7-11.7h-87.6c-1.8 0-2.8.6-3.9 1.8l-17.5 17.5c-1.3 1.3-.4 3.2 1.5 3.2h79.2l-49.1 49.2c-.9.9-1.3 1.8-1.3 3.2v12.9c0 1.5 1 2.6 2.6 2.6h12.9c1.5 0 2.4-.4 3.2-1.3l49.2-49.1v79.2c0 1.9 1.9 2.8 3.2 1.5l17.6-17.5c1-1.1 1.7-2.2 1.7-4z" fill="#191e3b"/><g fill="#fff"><path d="m415.9 109.7 35.9-49.5c1-1.5.2-3.1-1.5-3.1h-19.5c-1 0-2.4.4-3.1 1.5l-23.7 34.5-24.2-34.5c-.6-1-1.9-1.5-3.1-1.5h-20.8c-1 0-1.8.9-1.8 1.8 0 .4 0 .9.4 1.3l35.9 49.7-39.6 54.5c-1 1.5-.2 3.1 1.3 3.1h19.7c1 0 2.4-.4 3.1-1.5l27.4-39.5 27.8 39.5c.6 1.1 1.9 1.5 3.1 1.5h21c1 0 1.8-.9 1.8-1.8 0-.4-.2-.9-.4-1.3z"/><path d="m335.8 15.7c1.5 0 2.6 1 2.6 2.6v14.7c0 1.5-1 2.6-2.6 2.6h-70v43.7h62.9c1.5 0 2.6 1 2.6 2.6v14.6c0 1.5-1 2.6-2.6 2.6h-62.9v47.9h70c1.5 0 2.6 1 2.6 2.6v15.2c0 1.5-1 2.6-2.6 2.6h-81.9c-6.3 0-11-4.7-11-11v-129.7c0-6.3 4.7-11 11-11z"/><path d="m529.7 53.6c-21.2 0-32.5 9.3-39 18v-12c0-1.5-1-2.6-2.6-2.6h-17.1c-1.5 0-2.6 1.1-2.6 2.6v142.8c0 1.5 1 2.6 2.6 2.6h17.4c1.5 0 2.6-1 2.6-2.6v-49.2c6.3 8.7 17.5 17.4 38.7 17.4 34.5 0 54.6-26 54.6-58.5s-20.1-58.5-54.6-58.5zm-3.9 98.3c-21.2 0-35.8-14.3-35.8-39.6s14.6-40.1 35.8-40.1 35.5 14.7 35.5 40.1c.1 25.3-14.2 39.6-35.5 39.6z"/><path d="m652.6 53.6c-30.1 0-54.2 21.7-54.2 57.6 0 36.8 21.2 59.4 57 59.4 20.6 0 37.7-9.1 48.3-21.7.6-.6.9-1.3.9-1.9s-.2-1.3-.9-1.9l-10-9.8c-.6-.6-1.3-.9-1.9-.9s-1.3.4-1.9 1c-8.2 8.9-18.9 16.5-34.2 16.5-22.4 0-33.2-13.8-34.9-33.8h83.2c1.5 0 2.6-1.1 2.6-2.6v-4.3c0-32.9-20-57.6-54-57.6zm-31 47.7c2.6-18.1 12.1-29.9 30.9-29.9 19.3 0 29.5 11 31 29.9z"/><path d="m1016.4 57.1h-17.1c-1.5 0-2.6 1-2.6 2.6v12.1c-6.5-8.7-17.8-18-39.5-18-34 0-54.2 26-54.2 58.5s20.2 58.5 54.2 58.5c21.7 0 33-9.3 39.5-18v11.9c0 1.5 1 2.6 2.6 2.6h17.1c1.5 0 2.6-1 2.6-2.6v-105c.1-1.6-1.1-2.6-2.6-2.6zm-54.8 95.1c-21.2 0-35.5-14.7-35.5-40.1 0-25.3 14.3-39.6 35.5-39.6s35.8 14.3 35.8 39.6c-.1 25.4-14.6 40.1-35.8 40.1z"/><path d="m834 15.7h-17.4c-1.5 0-2.6 1-2.6 2.6v53.5c-6.5-8.7-17.5-18-39.2-18-34 0-54.2 26-54.2 58.5s20.2 58.5 54.2 58.5c21.7 0 33-9.3 39.5-18v11.9c0 1.5 1 2.6 2.6 2.6h17.1c1.5 0 2.6-1 2.6-2.6v-146.5c0-1.5-1.1-2.5-2.6-2.5zm-54.8 136.5c-21.2 0-35.5-14.7-35.5-40.1 0-25.3 14.3-39.6 35.5-39.6s35.8 14.3 35.8 39.6c-.1 25.4-14.6 40.1-35.8 40.1z"/><path d="m881.2 15.7c1.5 0 2.6 1 2.6 2.6v17.7c0 1.5-1 2.6-2.6 2.6h-17.8c-1.5 0-2.6-1-2.6-2.6v-17.8c0-1.5 1-2.6 2.6-2.6h17.8"/><path d="m881 57.1c1.5 0 2.6 1 2.6 2.6v105.1c0 1.5-1 2.6-2.6 2.6h-17.4c-1.5 0-2.6-1-2.6-2.6v-105.1c0-1.5 1-2.6 2.6-2.6z"/></g></svg>